{
	"asset":{
		"version":"2.0",
		"generator":"Created using the official Cinema 4D glTF Exporter 1.000x284978"
	},
	"scenes":[{
		"nodes":[0]
	}],
	"nodes":[{
		"name":"Black Hole",
		"children":[1,
		2,
		3]
	},
	{
		"name":"Torus (refraction)",
		"mesh":0
	},
	{
		"name":"Sphere (black)",
		"mesh":1
	},
	{
		"name":"Disks (animated)",
		"translation":[0.0,
		-0.5,
		0.0],
		"rotation":[0.0,
		-0.12059615552425385,
		0.0,
		-0.9927016496658325],
		"scale":[1.0,
		1.0,
		1.0],
		"children":[4,
		5]
	},
	{
		"name":"Disk (illuminance) ",
		"translation":[0.0,
		0.5,
		0.0],
		"rotation":[0.0,
		-0.20289966464042664,
		0.0,
		-0.9791995286941528],
		"scale":[1.0,
		1.0,
		1.0],
		"mesh":2
	},
	{
		"name":"Disk.1 (illuminance.1)",
		"translation":[0.0,
		-0.5,
		0.0],
		"rotation":[0.0,
		0.0,
		0.0,
		-1.0],
		"scale":[1.0,
		1.0,
		1.0],
		"mesh":3
	}],
	"materials":[{
		"pbrMetallicRoughness":{
			"baseColorFactor":[1.0,
			1.0,
			1.0,
			0.0],
			"metallicFactor":1.0,
			"roughnessFactor":1.0
		},
		"emissiveFactor":[0.0,
		0.0,
		0.0],
		"alphaMode":"BLEND",
		"doubleSided":false,
		"name":"refractio"
	},
	{
		"pbrMetallicRoughness":{
			"baseColorFactor":[1.0,
			1.0,
			1.0,
			1.0],
			"metallicFactor":1.0,
			"roughnessFactor":1.0
		},
		"emissiveFactor":[0.0,
		0.0,
		0.0],
		"alphaMode":"OPAQUE",
		"doubleSided":false,
		"name":"black"
	},
	{
		"pbrMetallicRoughness":{
			"baseColorFactor":[1.0,
			1.0,
			1.0,
			1.0],
			"metallicFactor":1.0,
			"roughnessFactor":1.0
		},
		"emissiveFactor":[1.0,
		1.0,
		1.0],
		"alphaMode":"BLEND",
		"doubleSided":false,
		"name":"illuminance"
	},
	{
		"pbrMetallicRoughness":{
			"baseColorFactor":[1.0,
			1.0,
			1.0,
			1.0],
			"metallicFactor":1.0,
			"roughnessFactor":1.0
		},
		"emissiveFactor":[1.0,
		1.0,
		1.0],
		"alphaMode":"BLEND",
		"doubleSided":false,
		"name":"illuminance.1"
	}],
	"meshes":[{
		"name":"Torus (refraction)",
		"primitives":[{
			"attributes":{
				"POSITION":1,
				"NORMAL":2,
				"TEXCOORD_0":3
			},
			"indices":0,
			"material":0
		}]
	},
	{
		"name":"Sphere (black)",
		"primitives":[{
			"attributes":{
				"POSITION":5,
				"NORMAL":6,
				"TEXCOORD_0":7
			},
			"indices":4,
			"material":1
		}]
	},
	{
		"name":"Disk (illuminance) ",
		"primitives":[{
			"attributes":{
				"POSITION":11,
				"NORMAL":12,
				"TEXCOORD_0":13
			},
			"indices":10,
			"material":2
		}]
	},
	{
		"name":"Disk.1 (illuminance.1)",
		"primitives":[{
			"attributes":{
				"POSITION":15,
				"NORMAL":16,
				"TEXCOORD_0":17
			},
			"indices":14,
			"material":3
		}]
	}],
	"accessors":[{
		"bufferView":0,
		"type":"SCALAR",
		"componentType":5123,
		"count":60000,
		"byteOffset":0,
		"min":[0],
		"max":[10200]
	},
	{
		"bufferView":1,
		"type":"VEC3",
		"componentType":5126,
		"count":10201,
		"byteOffset":0,
		"min":[-990.0,
		-990.0,
		-355.0],
		"max":[990.0,
		990.0,
		355.0]
	},
	{
		"bufferView":1,
		"type":"VEC3",
		"componentType":5126,
		"count":10201,
		"byteOffset":12,
		"min":[-1.0,
		-1.0,
		-0.9999999403953552],
		"max":[1.0,
		1.0,
		0.9999999403953552]
	},
	{
		"bufferView":1,
		"type":"VEC2",
		"componentType":5126,
		"count":10201,
		"byteOffset":24,
		"min":[0.0,
		0.0],
		"max":[1.0,
		1.0]
	},
	{
		"bufferView":2,
		"type":"SCALAR",
		"componentType":5123,
		"count":29400,
		"byteOffset":0,
		"min":[0],
		"max":[5148]
	},
	{
		"bufferView":3,
		"type":"VEC3",
		"componentType":5126,
		"count":5149,
		"byteOffset":0,
		"min":[-300.0,
		-300.0,
		-300.0],
		"max":[300.0,
		300.0,
		300.0]
	},
	{
		"bufferView":3,
		"type":"VEC3",
		"componentType":5126,
		"count":5149,
		"byteOffset":12,
		"min":[-1.0,
		-1.0,
		-1.0],
		"max":[1.0,
		1.0,
		1.0]
	},
	{
		"bufferView":3,
		"type":"VEC2",
		"componentType":5126,
		"count":5149,
		"byteOffset":24,
		"min":[0.0,
		0.0],
		"max":[1.0,
		1.0]
	},
	{
		"bufferView":4,
		"type":"SCALAR",
		"componentType":5126,
		"count":2,
		"byteOffset":0,
		"min":[0.0],
		"max":[4.0]
	},
	{
		"bufferView":4,
		"type":"VEC4",
		"componentType":5126,
		"count":2,
		"byteOffset":8,
		"min":[0.0,
		-0.41846054792404177,
		0.0,
		-1.0],
		"max":[0.0,
		0.0,
		0.0,
		-0.9082349538803101]
	},
	{
		"bufferView":5,
		"type":"SCALAR",
		"componentType":5123,
		"count":2100,
		"byteOffset":0,
		"min":[0],
		"max":[400]
	},
	{
		"bufferView":6,
		"type":"VEC3",
		"componentType":5126,
		"count":401,
		"byteOffset":0,
		"min":[-1000.0,
		0.0,
		-1000.0],
		"max":[1000.0,
		0.0,
		1000.0]
	},
	{
		"bufferView":6,
		"type":"VEC3",
		"componentType":5126,
		"count":401,
		"byteOffset":12,
		"min":[0.0,
		1.0,
		0.0],
		"max":[0.0,
		1.0,
		0.0]
	},
	{
		"bufferView":6,
		"type":"VEC2",
		"componentType":5126,
		"count":401,
		"byteOffset":24,
		"min":[0.0,
		0.0],
		"max":[1.0,
		1.0]
	},
	{
		"bufferView":7,
		"type":"SCALAR",
		"componentType":5123,
		"count":2100,
		"byteOffset":0,
		"min":[0],
		"max":[400]
	},
	{
		"bufferView":8,
		"type":"VEC3",
		"componentType":5126,
		"count":401,
		"byteOffset":0,
		"min":[-1100.0,
		0.0,
		-1100.0],
		"max":[1100.0,
		0.0,
		1100.0]
	},
	{
		"bufferView":8,
		"type":"VEC3",
		"componentType":5126,
		"count":401,
		"byteOffset":12,
		"min":[0.0,
		1.0,
		0.0],
		"max":[0.0,
		1.0,
		0.0]
	},
	{
		"bufferView":8,
		"type":"VEC2",
		"componentType":5126,
		"count":401,
		"byteOffset":24,
		"min":[0.0,
		0.0],
		"max":[1.0,
		1.0]
	}],
	"bufferViews":[{
		"buffer":0,
		"byteOffset":0,
		"byteLength":120000,
		"target":34963
	},
	{
		"buffer":0,
		"byteOffset":120000,
		"byteLength":326432,
		"byteStride":32,
		"target":34962
	},
	{
		"buffer":1,
		"byteOffset":0,
		"byteLength":58800,
		"target":34963
	},
	{
		"buffer":1,
		"byteOffset":58800,
		"byteLength":164768,
		"byteStride":32,
		"target":34962
	},
	{
		"buffer":2,
		"byteOffset":0,
		"byteLength":40
	},
	{
		"buffer":3,
		"byteOffset":0,
		"byteLength":4200,
		"target":34963
	},
	{
		"buffer":3,
		"byteOffset":4200,
		"byteLength":12832,
		"byteStride":32,
		"target":34962
	},
	{
		"buffer":4,
		"byteOffset":0,
		"byteLength":4200,
		"target":34963
	},
	{
		"buffer":4,
		"byteOffset":4200,
		"byteLength":12832,
		"byteStride":32,
		"target":34962
	}],
	"animations":[{
		"samplers":[{
			"output":9,
			"input":8,
			"interpolation":"LINEAR"
		}],
		"channels":[{
			"sampler":0,
			"target":{
				"node":3,
				"path":"rotation"
			}
		}]
	}],
	"buffers":[{
		"uri":"data:application/octet-stream;base64,",
		"byteLength":446432
	},
	{
		"uri":"data:application/octet-stream;base64,",
		"byteLength":223568
	},
	{
		"uri":"data:application/octet-stream;base64,",
		"byteLength":40
	},
	{
		"uri":"data:application/octet-stream;base64,",
		"byteLength":17032
	},
	{
		"uri":"data:application/octet-stream;base64,",
		"byteLength":17032
	}]
}