{
  "accessors": [
    {
      "bufferView": 2,
      "componentType": 5126,
      "count": 9749,
      "max": [
        185.1588134765625,
        247.5128936767578,
        173.3531951904297
      ],
      "min": [
        -185.18055725097656,
        -42.351219177246094,
        -202.86412048339844
      ],
      "type": "VEC3"
    },
    {
      "bufferView": 2,
      "byteOffset": 116988,
      "componentType": 5126,
      "count": 9749,
      "max": [
        0.9997504949569702,
        1.0,
        1.0
      ],
      "min": [
        -0.999750554561615,
        -1.0,
        -1.0
      ],
      "type": "VEC3"
    },
    {
      "bufferView": 1,
      "componentType": 5126,
      "count": 9749,
      "max": [
        0.9921519756317139,
        0.9921886920928955
      ],
      "min": [
        0.007848039269447327,
        0.007811307907104492
      ],
      "type": "VEC2"
    },
    {
      "bufferView": 0,
      "componentType": 5125,
      "count": 41076,
      "type": "SCALAR"
    },
    {
      "bufferView": 2,
      "byteOffset": 233976,
      "componentType": 5126,
      "count": 12414,
      "max": [
        445.1730041503906,
        36.29205322265625,
        71.53753662109375
      ],
      "min": [
        -7.502254962921143,
        -58.35670471191406,
        -275.4838562011719
      ],
      "type": "VEC3"
    },
    {
      "bufferView": 2,
      "byteOffset": 382944,
      "componentType": 5126,
      "count": 12414,
      "max": [
        1.0,
        1.0,
        1.0
      ],
      "min": [
        -1.0,
        -1.0,
        -1.0
      ],
      "type": "VEC3"
    },
    {
      "bufferView": 1,
      "byteOffset": 77992,
      "componentType": 5126,
      "count": 12414,
      "max": [
        3.035153865814209,
        2.068814516067505
      ],
      "min": [
        0.45727646350860596,
        0.09261083602905273
      ],
      "type": "VEC2"
    },
    {
      "bufferView": 1,
      "byteOffset": 177304,
      "componentType": 5126,
      "count": 12414,
      "max": [
        3.035153865814209,
        2.068814516067505
      ],
      "min": [
        0.45727646350860596,
        0.09261083602905273
      ],
      "type": "VEC2"
    },
    {
      "bufferView": 1,
      "byteOffset": 276616,
      "componentType": 5126,
      "count": 12414,
      "max": [
        1.0,
        1.0
      ],
      "min": [
        0.0,
        0.0
      ],
      "type": "VEC2"
    },
    {
      "bufferView": 0,
      "byteOffset": 164304,
      "componentType": 5125,
      "count": 72132,
      "type": "SCALAR"
    },
    {
      "bufferView": 2,
      "byteOffset": 531912,
      "componentType": 5126,
      "count": 2141,
      "max": [
        65.1754379272461,
        27.446500778198242,
        55.89438247680664
      ],
      "min": [
        -98.77886962890625,
        -14.843146324157715,
        -55.89438247680664
      ],
      "type": "VEC3"
    },
    {
      "bufferView": 2,
      "byteOffset": 557604,
      "componentType": 5126,
      "count": 2141,
      "max": [
        1.0,
        1.0,
        1.0
      ],
      "min": [
        -1.0,
        -1.0,
        -1.0
      ],
      "type": "VEC3"
    },
    {
      "bufferView": 1,
      "byteOffset": 375928,
      "componentType": 5126,
      "count": 2141,
      "max": [
        0.8711585402488708,
        0.8183051347732544
      ],
      "min": [
        -0.0625220462679863,
        0.1816948652267456
      ],
      "type": "VEC2"
    },
    {
      "bufferView": 1,
      "byteOffset": 393056,
      "componentType": 5126,
      "count": 2141,
      "max": [
        0.8711585402488708,
        0.8183051347732544
      ],
      "min": [
        -0.0625220462679863,
        0.1816948652267456
      ],
      "type": "VEC2"
    },
    {
      "bufferView": 1,
      "byteOffset": 410184,
      "componentType": 5126,
      "count": 2141,
      "max": [
        1.0014166831970215,
        1.0
      ],
      "min": [
        0.0,
        0.0
      ],
      "type": "VEC2"
    },
    {
      "bufferView": 0,
      "byteOffset": 452832,
      "componentType": 5125,
      "count": 6840,
      "type": "SCALAR"
    }
  ],
  "asset": {
    "extras": {
      "author": "Bastien Genbrugge (https://sketchfab.com/bastienBGR)",
      "license": "CC-BY-4.0 (http://creativecommons.org/licenses/by/4.0/)",
      "source": "https://sketchfab.com/3d-models/mini-macbook-pro-2b054523279747c8b5b2e5ed9ea7b311",
      "title": "Mini MacBook Pro"
    },
    "generator": "Sketchfab-12.66.0",
    "version": "2.0"
  },
  "bufferViews": [
    {
      "buffer": 0,
      "byteLength": 480192,
      "name": "floatBufferViews",
      "target": 34963
    },
    {
      "buffer": 0,
      "byteLength": 427312,
      "byteOffset": 480192,
      "byteStride": 8,
      "name": "floatBufferViews",
      "target": 34962
    },
    {
      "buffer": 0,
      "byteLength": 583296,
      "byteOffset": 907504,
      "byteStride": 12,
      "name": "floatBufferViews",
      "target": 34962
    }
  ],
  "buffers": [
    {
      "byteLength": 1490800,
      "uri": "scene.bin"
    }
  ],
  "extensionsRequired": [
    "KHR_materials_pbrSpecularGlossiness"
  ],
  "extensionsUsed": [
    "KHR_materials_pbrSpecularGlossiness"
  ],
  "images": [
    {
      "uri": "textures/MacBook.1_diffuse.jpeg"
    },
    {
      "uri": "textures/MacBook.1_emissive.jpeg"
    }
  ],
  "materials": [
    {
      "doubleSided": true,
      "emissiveFactor": [
        1.0,
        1.0,
        1.0
      ],
      "emissiveTexture": {
        "index": 1
      },
      "extensions": {
        "KHR_materials_pbrSpecularGlossiness": {
          "diffuseFactor": [
            1.0,
            1.0,
            1.0,
            1.0
          ],
          "diffuseTexture": {
            "index": 0
          },
          "glossinessFactor": 0.4799923780487805,
          "specularFactor": [
            0.0,
            0.0,
            0.0
          ]
        }
      },
      "name": "MacBook.1"
    },
    {
      "doubleSided": true,
      "extensions": {
        "KHR_materials_pbrSpecularGlossiness": {
          "diffuseFactor": [
            1.0,
            1.0,
            1.0,
            1.0
          ],
          "glossinessFactor": 0.4,
          "specularFactor": [
            0.0,
            0.0,
            0.0
          ]
        }
      },
      "name": "Mat_0"
    },
    {
      "doubleSided": true,
      "extensions": {
        "KHR_materials_pbrSpecularGlossiness": {
          "diffuseFactor": [
            0.603,
            0.8405999999999997,
            0.8999999999999999,
            1.0
          ],
          "glossinessFactor": 0.0,
          "specularFactor": [
            0.0,
            0.0,
            0.0
          ]
        }
      },
      "name": "material"
    }
  ],
  "meshes": [
    {
      "name": "MacBook_1_MacBook.1_0",
      "primitives": [
        {
          "attributes": {
            "NORMAL": 1,
            "POSITION": 0,
            "TEXCOORD_0": 2
          },
          "indices": 3,
          "material": 0,
          "mode": 4
        }
      ]
    },
    {
      "name": "Muis_1_Mat_2",
      "primitives": [
        {
          "attributes": {
            "NORMAL": 5,
            "POSITION": 4,
            "TEXCOORD_0": 6,
            "TEXCOORD_1": 7,
            "TEXCOORD_2": 8
          },
          "indices": 9,
          "material": 2,
          "mode": 4
        }
      ]
    },
    {
      "name": "Muis_1_Mat_0",
      "primitives": [
        {
          "attributes": {
            "NORMAL": 11,
            "POSITION": 10,
            "TEXCOORD_0": 12,
            "TEXCOORD_1": 13,
            "TEXCOORD_2": 14
          },
          "indices": 15,
          "material": 1,
          "mode": 4
        }
      ]
    }
  ],
  "nodes": [
    {
      "children": [
        1
      ],
      "matrix": [
        1.0,
        0.0,
        0.0,
        0.0,
        0.0,
        2.220446049250313e-16,
        -1.0,
        0.0,
        0.0,
        1.0,
        2.220446049250313e-16,
        0.0,
        0.0,
        0.0,
        0.0,
        1.0
      ],
      "name": "Sketchfab_model"
    },
    {
      "children": [
        2
      ],
      "matrix": [
        1.0,
        0.0,
        0.0,
        0.0,
        0.0,
        0.0,
        1.0,
        0.0,
        0.0,
        -1.0,
        0.0,
        0.0,
        0.0,
        0.0,
        0.0,
        1.0
      ],
      "name": "Macbook_Cartoon_2.fbx"
    },
    {
      "children": [
        3,
        5
      ],
      "name": "RootNode"
    },
    {
      "children": [
        4
      ],
      "matrix": [
        2.220446049250313e-16,
        0.0,
        -1.0,
        0.0,
        0.0,
        1.0,
        0.0,
        0.0,
        1.0,
        0.0,
        2.220446049250313e-16,
        0.0,
        8.57793140411377,
        13.852781295776367,
        133.99574279785156,
        1.0
      ],
      "name": "MacBook_1"
    },
    {
      "mesh": 0,
      "name": "MacBook_1_MacBook.1_0"
    },
    {
      "children": [
        6,
        7
      ],
      "matrix": [
        -0.9607048814861705,
        -1.176524158037276e-16,
        0.27757184779556326,
        0.0,
        -1.564574274083606e-16,
        1.0,
        -1.176524158037276e-16,
        0.0,
        -0.27757184779556326,
        -1.564574274083606e-16,
        -0.9607048814861705,
        0.0,
        -8.57793140411377,
        -13.852781295776367,
        -133.99574279785156,
        1.0
      ],
      "name": "Muis_1"
    },
    {
      "mesh": 1,
      "name": "Muis_1_Mat_2"
    },
    {
      "mesh": 2,
      "name": "Muis_1_Mat_0"
    }
  ],
  "samplers": [
    {
      "magFilter": 9729,
      "minFilter": 9987,
      "wrapS": 10497,
      "wrapT": 10497
    }
  ],
  "scene": 0,
  "scenes": [
    {
      "name": "Sketchfab_Scene",
      "nodes": [
        0
      ]
    }
  ],
  "textures": [
    {
      "sampler": 0,
      "source": 0
    },
    {
      "sampler": 0,
      "source": 1
    }
  ]
}
