{
  "accessors": [
    {
      "bufferView": 2,
      "componentType": 5126,
      "count": 561,
      "max": [
        1.0,
        1.0,
        1.0
      ],
      "min": [
        -1.0,
        -1.0,
        -1.0
      ],
      "type": "VEC3"
    },
    {
      "bufferView": 2,
      "byteOffset": 6732,
      "componentType": 5126,
      "count": 561,
      "max": [
        1.0,
        1.0,
        1.0
      ],
      "min": [
        -1.0,
        -1.0,
        -1.0
      ],
      "type": "VEC3"
    },
    {
      "bufferView": 3,
      "componentType": 5126,
      "count": 561,
      "max": [
        1.0,
        1.0,
        0.19999302923679352,
        1.0
      ],
      "min": [
        -1.0,
        -1.0,
        -0.1999962031841278,
        1.0
      ],
      "type": "VEC4"
    },
    {
      "bufferView": 1,
      "componentType": 5126,
      "count": 561,
      "max": [
        0.9995800256729126,
        0.99235999584198
      ],
      "min": [
        0.0005099999834783375,
        0.006149999797344208
      ],
      "type": "VEC2"
    },
    {
      "bufferView": 0,
      "componentType": 5125,
      "count": 2880,
      "type": "SCALAR"
    },
    {
      "bufferView": 2,
      "byteOffset": 13464,
      "componentType": 5126,
      "count": 561,
      "max": [
        1.0070099830627441,
        1.0070099830627441,
        1.0070099830627441
      ],
      "min": [
        -1.0070099830627441,
        -1.0070099830627441,
        -1.0070099830627441
      ],
      "type": "VEC3"
    },
    {
      "bufferView": 2,
      "byteOffset": 20196,
      "componentType": 5126,
      "count": 561,
      "max": [
        1.0,
        1.0,
        1.0
      ],
      "min": [
        -1.0,
        -1.0,
        -1.0
      ],
      "type": "VEC3"
    },
    {
      "bufferView": 3,
      "byteOffset": 8976,
      "componentType": 5126,
      "count": 561,
      "max": [
        1.0,
        1.0,
        0.19999603927135468,
        1.0
      ],
      "min": [
        -1.0,
        -1.0,
        -0.20000067353248596,
        1.0
      ],
      "type": "VEC4"
    },
    {
      "bufferView": 1,
      "byteOffset": 4488,
      "componentType": 5126,
      "count": 561,
      "max": [
        0.9995800256729126,
        0.9925900101661682
      ],
      "min": [
        0.0005099999834783375,
        0.006149999797344208
      ],
      "type": "VEC2"
    },
    {
      "bufferView": 0,
      "byteOffset": 11520,
      "componentType": 5125,
      "count": 2880,
      "type": "SCALAR"
    },
    {
      "bufferView": 2,
      "byteOffset": 26928,
      "componentType": 5126,
      "count": 1122,
      "max": [
        1.0149600505828857,
        1.0149600505828857,
        1.0149600505828857
      ],
      "min": [
        -1.0149600505828857,
        -1.0149600505828857,
        -1.0149600505828857
      ],
      "type": "VEC3"
    },
    {
      "bufferView": 2,
      "byteOffset": 40392,
      "componentType": 5126,
      "count": 1122,
      "max": [
        1.0,
        1.0,
        1.0
      ],
      "min": [
        -1.0,
        -1.0,
        -1.0
      ],
      "type": "VEC3"
    },
    {
      "bufferView": 3,
      "byteOffset": 17952,
      "componentType": 5126,
      "count": 1122,
      "max": [
        1.0,
        1.0,
        0.19999614357948303,
        1.0
      ],
      "min": [
        -1.0,
        -1.0,
        -0.2000008225440979,
        1.0
      ],
      "type": "VEC4"
    },
    {
      "bufferView": 1,
      "byteOffset": 8976,
      "componentType": 5126,
      "count": 1122,
      "max": [
        0.9995800256729126,
        0.9925900101661682
      ],
      "min": [
        0.0005099999834783375,
        0.006149999797344208
      ],
      "type": "VEC2"
    },
    {
      "bufferView": 0,
      "byteOffset": 23040,
      "componentType": 5125,
      "count": 5760,
      "type": "SCALAR"
    },
    {
      "bufferView": 4,
      "componentType": 5126,
      "count": 1152,
      "max": [
        19.200000762939453
      ],
      "min": [
        0.016669999808073044
      ],
      "type": "SCALAR"
    },
    {
      "bufferView": 5,
      "componentType": 5126,
      "count": 1152,
      "max": [
        0.0,
        0.0,
        0.9999899864196777,
        1.0
      ],
      "min": [
        0.0,
        0.0,
        -0.9999399781227112,
        -0.005450000055134296
      ],
      "type": "VEC4"
    },
    {
      "bufferView": 4,
      "byteOffset": 4608,
      "componentType": 5126,
      "count": 1152,
      "max": [
        19.200000762939453
      ],
      "min": [
        0.016669999808073044
      ],
      "type": "SCALAR"
    },
    {
      "bufferView": 5,
      "byteOffset": 18432,
      "componentType": 5126,
      "count": 1152,
      "max": [
        0.0,
        0.0,
        0.999970018863678,
        1.0
      ],
      "min": [
        0.0,
        0.0,
        -0.9999399781227112,
        -0.008179999887943268
      ],
      "type": "VEC4"
    }
  ],
  "animations": [
    {
      "channels": [
        {
          "sampler": 0,
          "target": {
            "node": 6,
            "path": "rotation"
          }
        },
        {
          "sampler": 1,
          "target": {
            "node": 2,
            "path": "rotation"
          }
        }
      ],
      "name": "Take 01",
      "samplers": [
        {
          "input": 15,
          "interpolation": "LINEAR",
          "output": 16
        },
        {
          "input": 17,
          "interpolation": "LINEAR",
          "output": 18
        }
      ]
    }
  ],
  "asset": {
    "extras": {
      "author": "Yo.Ri (https://sketchfab.com/grox777)",
      "license": "CC-BY-4.0 (http://creativecommons.org/licenses/by/4.0/)",
      "source": "https://sketchfab.com/3d-models/purple-planet-264eb22207184fc99a5e3b1279a763b8",
      "title": "Purple Planet"
    },
    "generator": "Sketchfab-12.66.0",
    "version": "2.0"
  },
  "bufferViews": [
    {
      "buffer": 0,
      "byteLength": 46080,
      "name": "floatBufferViews",
      "target": 34963
    },
    {
      "buffer": 0,
      "byteLength": 17952,
      "byteOffset": 46080,
      "byteStride": 8,
      "name": "floatBufferViews",
      "target": 34962
    },
    {
      "buffer": 0,
      "byteLength": 53856,
      "byteOffset": 64032,
      "byteStride": 12,
      "name": "floatBufferViews",
      "target": 34962
    },
    {
      "buffer": 0,
      "byteLength": 35904,
      "byteOffset": 117888,
      "byteStride": 16,
      "name": "floatBufferViews",
      "target": 34962
    },
    {
      "buffer": 0,
      "byteLength": 9216,
      "byteOffset": 153792,
      "name": "floatBufferViews"
    },
    {
      "buffer": 0,
      "byteLength": 36864,
      "byteOffset": 163008,
      "byteStride": 16,
      "name": "floatBufferViews"
    }
  ],
  "buffers": [
    {
      "byteLength": 199872,
      "uri": "scene.bin"
    }
  ],
  "images": [
    {
      "uri": "textures/Clouds_1_baseColor.png"
    },
    {
      "uri": "textures/Clouds_1_normal.png"
    },
    {
      "uri": "textures/PurplePlanet_baseColor.png"
    },
    {
      "uri": "textures/PurplePlanet_metallicRoughness.png"
    },
    {
      "uri": "textures/PurplePlanet_normal.png"
    },
    {
      "uri": "textures/Clouds_0_baseColor.png"
    },
    {
      "uri": "textures/Clouds_0_normal.png"
    }
  ],
  "materials": [
    {
      "alphaMode": "BLEND",
      "doubleSided": true,
      "emissiveFactor": [
        1.0,
        0.9790895637281845,
        1.0
      ],
      "name": "Clouds_1",
      "normalTexture": {
        "index": 1
      },
      "pbrMetallicRoughness": {
        "baseColorTexture": {
          "index": 0
        },
        "metallicFactor": 0.0
      }
    },
    {
      "doubleSided": true,
      "emissiveFactor": [
        0.2516851342309517,
        0.1363345943012135,
        1.0
      ],
      "name": "PurplePlanet",
      "normalTexture": {
        "index": 4
      },
      "pbrMetallicRoughness": {
        "baseColorTexture": {
          "index": 2
        },
        "metallicFactor": 0.0,
        "metallicRoughnessTexture": {
          "index": 3
        }
      }
    },
    {
      "alphaMode": "BLEND",
      "doubleSided": true,
      "emissiveFactor": [
        1.0,
        0.5758793537134259,
        1.0
      ],
      "name": "Clouds_0",
      "normalTexture": {
        "index": 6
      },
      "pbrMetallicRoughness": {
        "baseColorTexture": {
          "index": 5
        },
        "metallicFactor": 0.0
      }
    }
  ],
  "meshes": [
    {
      "name": "Planet_0",
      "primitives": [
        {
          "attributes": {
            "NORMAL": 1,
            "POSITION": 0,
            "TANGENT": 2,
            "TEXCOORD_0": 3
          },
          "indices": 4,
          "material": 1,
          "mode": 4
        }
      ]
    },
    {
      "name": "Clouds_0_0",
      "primitives": [
        {
          "attributes": {
            "NORMAL": 6,
            "POSITION": 5,
            "TANGENT": 7,
            "TEXCOORD_0": 8
          },
          "indices": 9,
          "material": 2,
          "mode": 4
        }
      ]
    },
    {
      "name": "Clouds_1_0",
      "primitives": [
        {
          "attributes": {
            "NORMAL": 11,
            "POSITION": 10,
            "TANGENT": 12,
            "TEXCOORD_0": 13
          },
          "indices": 14,
          "material": 0,
          "mode": 4
        }
      ]
    }
  ],
  "nodes": [
    {
      "children": [
        1
      ],
      "matrix": [
        1.0,
        0.0,
        0.0,
        0.0,
        0.0,
        2.220446049250313e-16,
        -1.0,
        0.0,
        0.0,
        1.0,
        2.220446049250313e-16,
        0.0,
        0.0,
        0.0,
        0.0,
        1.0
      ],
      "name": "Sketchfab_model"
    },
    {
      "children": [
        2,
        6
      ],
      "name": "Root"
    },
    {
      "children": [
        3,
        4
      ],
      "name": "Planet",
      "rotation": [
        0.0,
        0.0,
        0.7071067690849304,
        0.7071067690849304
      ]
    },
    {
      "mesh": 0,
      "name": "Planet_0"
    },
    {
      "children": [
        5
      ],
      "matrix": [
        -0.0,
        -1.01308,
        0.0,
        0.0,
        1.01308,
        -0.0,
        0.0,
        0.0,
        0.0,
        0.0,
        1.01308,
        0.0,
        0.0,
        0.0,
        0.0,
        1.0
      ],
      "name": "Clouds_0"
    },
    {
      "mesh": 1,
      "name": "Clouds_0_0"
    },
    {
      "children": [
        7
      ],
      "name": "Clouds_1",
      "scale": [
        1.0189000368118286,
        1.0189000368118286,
        1.0189000368118286
      ]
    },
    {
      "mesh": 2,
      "name": "Clouds_1_0"
    }
  ],
  "samplers": [
    {
      "magFilter": 9729,
      "minFilter": 9987,
      "wrapS": 10497,
      "wrapT": 10497
    }
  ],
  "scene": 0,
  "scenes": [
    {
      "name": "Sketchfab_Scene",
      "nodes": [
        0
      ]
    }
  ],
  "textures": [
    {
      "sampler": 0,
      "source": 0
    },
    {
      "sampler": 0,
      "source": 1
    },
    {
      "sampler": 0,
      "source": 2
    },
    {
      "sampler": 0,
      "source": 3
    },
    {
      "sampler": 0,
      "source": 4
    },
    {
      "sampler": 0,
      "source": 5
    },
    {
      "sampler": 0,
      "source": 6
    }
  ]
}
