<?xml version="1.0" standalone="no"?>
<!DOCTYPE svg PUBLIC "-//W3C//DTD SVG 20010904//EN"
 "http://www.w3.org/TR/2001/REC-SVG-20010904/DTD/svg10.dtd">
<svg version="1.0" xmlns="http://www.w3.org/2000/svg"
 width="700.000000pt" height="700.000000pt" viewBox="0 0 700.000000 700.000000"
 preserveAspectRatio="xMidYMid meet">
<metadata>
Created by potrace 1.14, written by Peter Selinger 2001-2017
</metadata>
<g transform="translate(0.000000,700.000000) scale(0.100000,-0.100000)"
fill="#000000" stroke="none">
<path d="M3345 6985 c-188 -41 -358 -154 -470 -310 -156 -219 -183 -514 -70
-762 94 -205 287 -363 515 -422 112 -29 296 -23 405 13 373 122 593 480 528
860 -50 286 -265 527 -543 606 -93 27 -277 34 -365 15z"/>
<path d="M2160 5353 c-14 -3 -57 -20 -96 -39 -115 -54 -200 -161 -233 -294 -7
-25 -16 -54 -21 -65 -5 -11 -18 -42 -29 -68 -33 -77 -110 -186 -181 -257 -228
-227 -556 -310 -863 -219 -39 11 -97 34 -128 49 -82 40 -125 53 -197 55 -154
6 -286 -74 -355 -215 -29 -59 -32 -73 -32 -160 0 -90 2 -99 38 -170 20 -41 71
-129 112 -195 40 -66 129 -212 198 -325 68 -113 208 -344 312 -515 104 -170
207 -341 229 -379 23 -37 51 -84 64 -105 12 -20 31 -52 42 -71 11 -19 40 -66
64 -105 86 -140 390 -641 420 -692 l30 -53 1966 0 1965 0 110 181 c61 100 119
198 131 218 12 20 47 79 79 131 32 52 66 109 75 125 15 25 409 676 439 725 12
18 188 310 216 356 11 18 76 125 145 238 330 542 326 534 317 663 -13 193
-166 340 -361 348 -77 3 -131 -10 -222 -54 -333 -161 -732 -93 -996 171 -109
108 -180 231 -231 398 -31 100 -66 159 -131 219 -194 177 -514 128 -646 -98
-66 -114 -138 -212 -200 -272 -278 -273 -683 -357 -1045 -217 -213 83 -382
229 -505 438 -68 116 -125 174 -216 217 -60 29 -84 34 -155 37 -46 2 -95 1
-109 -1z"/>
<path d="M1232 795 c-247 -248 -304 -310 -327 -358 -62 -130 -21 -289 97 -376
89 -65 -92 -61 2498 -61 2623 0 2413 -6 2509 70 114 90 146 254 76 390 -10 19
-152 170 -317 335 l-299 299 -1969 1 -1969 0 -299 -300z"/>
</g>
</svg>
